<?xml version="1.0" encoding="UTF-8" standalone="no"?>
<!DOCTYPE svg PUBLIC "-//W3C//DTD SVG 1.1//EN"
 "http://www.w3.org/Graphics/SVG/1.1/DTD/svg11.dtd">
<!-- Generated by graphviz version 2.40.1 (20161225.0304)
 -->
<!-- Title: dependencies Pages: 1 -->
<svg width="1624pt" height="284pt"
 viewBox="0.00 0.00 1624.00 284.00" xmlns="http://www.w3.org/2000/svg" xmlns:xlink="http://www.w3.org/1999/xlink">
<g id="graph0" class="graph" transform="scale(1 1) rotate(0) translate(4 280)">
<title>dependencies</title>
<polygon fill="#ffffff" stroke="transparent" points="-4,4 -4,-280 1620,-280 1620,4 -4,4"/>
<text text-anchor="start" x="787.0091" y="-42.4" font-family="sans-serif" font-weight="bold" font-size="14.00" fill="#000000">Legend</text>
<polygon fill="#ffffb3" stroke="transparent" points="574,-10 574,-30 594,-30 594,-10 574,-10"/>
<text text-anchor="start" x="597.629" y="-15.4" font-family="sans-serif" font-size="14.00" fill="#000000"> &#160;Declarations</text>
<polygon fill="#8dd3c7" stroke="transparent" points="687,-10 687,-30 707,-30 707,-10 687,-10"/>
<text text-anchor="start" x="710.7251" y="-15.4" font-family="sans-serif" font-size="14.00" fill="#000000"> &#160;Module</text>
<polygon fill="#80b1d3" stroke="transparent" points="773,-10 773,-30 793,-30 793,-10 773,-10"/>
<text text-anchor="start" x="796.7812" y="-15.4" font-family="sans-serif" font-size="14.00" fill="#000000"> &#160;Bootstrap</text>
<polygon fill="#fdb462" stroke="transparent" points="870,-10 870,-30 890,-30 890,-10 870,-10"/>
<text text-anchor="start" x="893.6732" y="-15.4" font-family="sans-serif" font-size="14.00" fill="#000000"> &#160;Providers</text>
<polygon fill="#fb8072" stroke="transparent" points="966,-10 966,-30 986,-30 986,-10 966,-10"/>
<text text-anchor="start" x="989.7258" y="-15.4" font-family="sans-serif" font-size="14.00" fill="#000000"> &#160;Exports</text>
<g id="clust1" class="cluster">
<title>cluster_AppModule</title>
<polygon fill="none" stroke="#000000" stroke-dasharray="1,5" points="8,-70 8,-268 1608,-268 1608,-70 8,-70"/>
</g>
<g id="clust2" class="cluster">
<title>cluster_AppModule_declarations</title>
<polygon fill="none" stroke="#000000" points="168,-78 168,-130 1600,-130 1600,-78 168,-78"/>
</g>
<g id="clust12" class="cluster">
<title>cluster_AppModule_imports</title>
<polygon fill="none" stroke="#000000" points="16,-78 16,-130 160,-130 160,-78 16,-78"/>
</g>
<g id="clust14" class="cluster">
<title>cluster_AppModule_bootstrap</title>
<polygon fill="none" stroke="#000000" points="819,-208 819,-260 943,-260 943,-208 819,-208"/>
</g>
<!-- AlertComponent -->
<g id="node1" class="node">
<title>AlertComponent</title>
<polygon fill="#ffffb3" stroke="#000000" points="1592.0954,-122 1481.9046,-122 1481.9046,-86 1592.0954,-86 1592.0954,-122"/>
<text text-anchor="middle" x="1537" y="-99.8" font-family="Times,serif" font-size="14.00" fill="#000000">AlertComponent</text>
</g>
<!-- AppModule -->
<g id="node10" class="node">
<title>AppModule</title>
<polygon fill="#8dd3c7" stroke="#000000" points="922.6571,-187 919.6571,-191 898.6571,-191 895.6571,-187 839.3429,-187 839.3429,-151 922.6571,-151 922.6571,-187"/>
<text text-anchor="middle" x="881" y="-164.8" font-family="Times,serif" font-size="14.00" fill="#000000">AppModule</text>
</g>
<!-- AlertComponent&#45;&gt;AppModule -->
<g id="edge1" class="edge">
<title>AlertComponent&#45;&gt;AppModule</title>
<path fill="none" stroke="#000000" d="M1537,-122.0109C1537,-144.4852 1537,-180 1537,-180 1537,-180 932.7832,-180 932.7832,-180"/>
<polygon fill="#000000" stroke="#000000" points="932.7832,-176.5001 922.7832,-180 932.7832,-183.5001 932.7832,-176.5001"/>
</g>
<!-- AppComponent -->
<g id="node2" class="node">
<title>AppComponent</title>
<polygon fill="#ffffb3" stroke="#000000" points="1463.9399,-122 1358.0601,-122 1358.0601,-86 1463.9399,-86 1463.9399,-122"/>
<text text-anchor="middle" x="1411" y="-99.8" font-family="Times,serif" font-size="14.00" fill="#000000">AppComponent</text>
</g>
<!-- AppComponent&#45;&gt;AppModule -->
<g id="edge2" class="edge">
<title>AppComponent&#45;&gt;AppModule</title>
<path fill="none" stroke="#000000" d="M1411,-122.1289C1411,-142.5724 1411,-173 1411,-173 1411,-173 933.0312,-173 933.0312,-173"/>
<polygon fill="#000000" stroke="#000000" points="933.0313,-169.5001 923.0312,-173 933.0312,-176.5001 933.0313,-169.5001"/>
</g>
<!-- DashboardComponent -->
<g id="node3" class="node">
<title>DashboardComponent</title>
<polygon fill="#ffffb3" stroke="#000000" points="1339.9734,-122 1198.0266,-122 1198.0266,-86 1339.9734,-86 1339.9734,-122"/>
<text text-anchor="middle" x="1269" y="-99.8" font-family="Times,serif" font-size="14.00" fill="#000000">DashboardComponent</text>
</g>
<!-- DashboardComponent&#45;&gt;AppModule -->
<g id="edge3" class="edge">
<title>DashboardComponent&#45;&gt;AppModule</title>
<path fill="none" stroke="#000000" d="M1269,-122.2667C1269,-140.5552 1269,-166 1269,-166 1269,-166 932.8914,-166 932.8914,-166"/>
<polygon fill="#000000" stroke="#000000" points="932.8915,-162.5001 922.8914,-166 932.8914,-169.5001 932.8915,-162.5001"/>
</g>
<!-- LoginComponent -->
<g id="node4" class="node">
<title>LoginComponent</title>
<polygon fill="#ffffb3" stroke="#000000" points="1180.2758,-122 1065.7242,-122 1065.7242,-86 1180.2758,-86 1180.2758,-122"/>
<text text-anchor="middle" x="1123" y="-99.8" font-family="Times,serif" font-size="14.00" fill="#000000">LoginComponent</text>
</g>
<!-- LoginComponent&#45;&gt;AppModule -->
<g id="edge4" class="edge">
<title>LoginComponent&#45;&gt;AppModule</title>
<path fill="none" stroke="#000000" d="M1123,-122.0091C1123,-138.0494 1123,-159 1123,-159 1123,-159 932.8769,-159 932.8769,-159"/>
<polygon fill="#000000" stroke="#000000" points="932.8769,-155.5001 922.8769,-159 932.8769,-162.5001 932.8769,-155.5001"/>
</g>
<!-- NotificationComponent -->
<g id="node5" class="node">
<title>NotificationComponent</title>
<polygon fill="#ffffb3" stroke="#000000" points="1047.4818,-122 898.5182,-122 898.5182,-86 1047.4818,-86 1047.4818,-122"/>
<text text-anchor="middle" x="973" y="-99.8" font-family="Times,serif" font-size="14.00" fill="#000000">NotificationComponent</text>
</g>
<!-- NotificationComponent&#45;&gt;AppModule -->
<g id="edge5" class="edge">
<title>NotificationComponent&#45;&gt;AppModule</title>
<path fill="none" stroke="#000000" d="M910.6687,-122.1061C910.6687,-122.1061 910.6687,-140.991 910.6687,-140.991"/>
<polygon fill="#000000" stroke="#000000" points="907.1687,-140.9909 910.6687,-150.991 914.1687,-140.991 907.1687,-140.9909"/>
</g>
<!-- NotificationDetailComponent -->
<g id="node6" class="node">
<title>NotificationDetailComponent</title>
<polygon fill="#ffffb3" stroke="#000000" points="880.6895,-122 697.3105,-122 697.3105,-86 880.6895,-86 880.6895,-122"/>
<text text-anchor="middle" x="789" y="-99.8" font-family="Times,serif" font-size="14.00" fill="#000000">NotificationDetailComponent</text>
</g>
<!-- NotificationDetailComponent&#45;&gt;AppModule -->
<g id="edge6" class="edge">
<title>NotificationDetailComponent&#45;&gt;AppModule</title>
<path fill="none" stroke="#000000" d="M859.8833,-122.1061C859.8833,-122.1061 859.8833,-140.991 859.8833,-140.991"/>
<polygon fill="#000000" stroke="#000000" points="856.3833,-140.9909 859.8833,-150.991 863.3833,-140.991 856.3833,-140.9909"/>
</g>
<!-- NotificationGeneratorComponent -->
<g id="node7" class="node">
<title>NotificationGeneratorComponent</title>
<polygon fill="#ffffb3" stroke="#000000" points="679.444,-122 474.556,-122 474.556,-86 679.444,-86 679.444,-122"/>
<text text-anchor="middle" x="577" y="-99.8" font-family="Times,serif" font-size="14.00" fill="#000000">NotificationGeneratorComponent</text>
</g>
<!-- NotificationGeneratorComponent&#45;&gt;AppModule -->
<g id="edge7" class="edge">
<title>NotificationGeneratorComponent&#45;&gt;AppModule</title>
<path fill="none" stroke="#000000" d="M577,-122.0091C577,-138.0494 577,-159 577,-159 577,-159 829.0493,-159 829.0493,-159"/>
<polygon fill="#000000" stroke="#000000" points="829.0493,-162.5001 839.0493,-159 829.0492,-155.5001 829.0493,-162.5001"/>
</g>
<!-- PageTitleComponent -->
<g id="node8" class="node">
<title>PageTitleComponent</title>
<polygon fill="#ffffb3" stroke="#000000" points="456.4832,-122 321.5168,-122 321.5168,-86 456.4832,-86 456.4832,-122"/>
<text text-anchor="middle" x="389" y="-99.8" font-family="Times,serif" font-size="14.00" fill="#000000">PageTitleComponent</text>
</g>
<!-- PageTitleComponent&#45;&gt;AppModule -->
<g id="edge8" class="edge">
<title>PageTitleComponent&#45;&gt;AppModule</title>
<path fill="none" stroke="#000000" d="M389,-122.2667C389,-140.5552 389,-166 389,-166 389,-166 829.0524,-166 829.0524,-166"/>
<polygon fill="#000000" stroke="#000000" points="829.0524,-169.5001 839.0524,-166 829.0523,-162.5001 829.0524,-169.5001"/>
</g>
<!-- RegisterComponent -->
<g id="node9" class="node">
<title>RegisterComponent</title>
<polygon fill="#ffffb3" stroke="#000000" points="303.9846,-122 176.0154,-122 176.0154,-86 303.9846,-86 303.9846,-122"/>
<text text-anchor="middle" x="240" y="-99.8" font-family="Times,serif" font-size="14.00" fill="#000000">RegisterComponent</text>
</g>
<!-- RegisterComponent&#45;&gt;AppModule -->
<g id="edge9" class="edge">
<title>RegisterComponent&#45;&gt;AppModule</title>
<path fill="none" stroke="#000000" d="M240,-122.1289C240,-142.5724 240,-173 240,-173 240,-173 828.9422,-173 828.9422,-173"/>
<polygon fill="#000000" stroke="#000000" points="828.9422,-176.5001 838.9422,-173 828.9422,-169.5001 828.9422,-176.5001"/>
</g>
<!-- AppComponent  -->
<g id="node12" class="node">
<title>AppComponent </title>
<polygon fill="#80b1d3" stroke="#000000" points="935.439,-252 826.561,-252 826.561,-216 935.439,-216 935.439,-252"/>
<text text-anchor="middle" x="881" y="-229.8" font-family="Times,serif" font-size="14.00" fill="#000000">AppComponent </text>
</g>
<!-- AppModule&#45;&gt;AppComponent  -->
<g id="edge11" class="edge">
<title>AppModule&#45;&gt;AppComponent </title>
<path fill="none" stroke="#000000" stroke-dasharray="1,5" d="M881,-187.1061C881,-187.1061 881,-205.991 881,-205.991"/>
<polygon fill="#000000" stroke="#000000" points="877.5001,-205.9909 881,-215.991 884.5001,-205.991 877.5001,-205.9909"/>
</g>
<!-- AppRoutingModule -->
<g id="node11" class="node">
<title>AppRoutingModule</title>
<polygon fill="#8dd3c7" stroke="#000000" points="152.2744,-122 149.2744,-126 128.2744,-126 125.2744,-122 23.7256,-122 23.7256,-86 152.2744,-86 152.2744,-122"/>
<text text-anchor="middle" x="88" y="-99.8" font-family="Times,serif" font-size="14.00" fill="#000000">AppRoutingModule</text>
</g>
<!-- AppRoutingModule&#45;&gt;AppModule -->
<g id="edge10" class="edge">
<title>AppRoutingModule&#45;&gt;AppModule</title>
<path fill="none" stroke="#000000" d="M88,-122.0109C88,-144.4852 88,-180 88,-180 88,-180 829.2035,-180 829.2035,-180"/>
<polygon fill="#000000" stroke="#000000" points="829.2035,-183.5001 839.2035,-180 829.2035,-176.5001 829.2035,-183.5001"/>
</g>
</g>
</svg>
